<svg height="26" viewBox="0 0 32 26" width="32" xmlns="http://www.w3.org/2000/svg"><g fill="#fff" transform=""><path d="m25.3728879 8.32080918c-.0668123-4.59880547-4.056367-8.32080918-8.950795-8.32080918-2.1771832 0-4.2747416.74654518-5.9061134 2.10213265-1.4559972 1.20977787-2.45199525 2.82646763-2.84643198 4.60145655-.02881244-.00029456-.05737489-.00053021-.08587483-.00053021-4.18155433.00005891-7.58367269 3.20686869-7.58367269 7.14849991 0 3.9416313 3.40211836 7.1484411 7.58373519 7.1484411h2.78336961c.3768117 0 .6824361-.2879666.6824361-.6432707 0-.3553042-.3056244-.6432708-.6824361-.6432708h-2.78336961c-3.4291183 0-6.21886286-2.6296394-6.21886286-5.8618996 0-3.2322601 2.78974456-5.86189953 6.21886286-5.86189953.18268714 0 .37581176.00924934.59049884.02827823.36387429.031813.69056116-.21185105.74012356-.55354628.24574952-1.69787184 1.13506031-3.25947798 2.50418261-4.39714637 1.3819348-1.14833164 3.1588688-1.78070348 5.0034902-1.78070348 4.1834294 0 7.5867977 3.20810587 7.5867977 7.1513867 0 .14198026-.0280624.5091259-.0280624.5091259-.0141875.18922847.0609373.37474541.2054371.50688721.1443122.13214179.3429993.19729954.5435614.1785063.1814996-.0172615.3646243-.02592171.5442489-.02592171 2.9560568 0 5.3611146 2.26697113 5.3611146 5.05343683 0 2.7864069-2.4049953 5.053378-5.3611146 5.053378h-3.056369c-.3768118 0-.6824362.2879666-.6824362.6432707 0 .3553042.3056244.6432708.6824362.6432708h3.056369c3.7086803 0 6.7259869-2.8440237 6.7259869-6.3399195-.0000625-3.464554-2.9638067-6.28907749-6.6271121-6.33915352z"/><path d="m16.3572927 4c-2.6874925 0-4.9880303 2.23087684-5.3513227 5.18912113-.047972.39065353.1984217.74940097.5499418.80386363.3748292.05805864.6797311-.25296042.7237006-.6108579.2767661-2.25428336 2.0297755-3.95426369 4.0776803-3.95426369.3549929 0 .6427073-.31958401.6427073-.71389889 0-.39438027-.2877732-.71396428-.6427073-.71396428z"/><path d="m19.8245826 22.5736338c-.2538863-.2776165-.6901763-.3017598-.9744632-.0535968l-1.6600256 1.4487805v-8.2945971c0-.3723989-.3090625-.6742204-.6901131-.6742204-.381177 0-.6901131.3018215-.6901131.6742204v8.2945354l-1.6599624-1.4487805c-.2841605-.2481013-.7205769-.223958-.9744.0535968-.2539494.27774-.2294267.7038592.0548602.9520222l2.5102318 2.1909849c.2164701.1890089.4878636.2834208.7593203.2834208.2713935 0 .5428502-.0944736.7592571-.2833591l2.5103582-2.1909848c.2843501-.2480396.308936-.6742822.0550498-.9520223z"/></g></svg>